<svg width="532" height="224" viewBox="0 0 532 224" fill="none" xmlns="http://www.w3.org/2000/svg">
<path d="M82.3024 219.822C14.2784 215.571 -6.20392 147.343 6.59677 86.4578C6.65778 86.1676 6.84526 85.92 7.10751 85.7816L32.5 72.3832L51.8731 63.5578C51.9573 63.5195 52.0464 63.493 52.1379 63.4791L84.9255 58.5113C84.9751 58.5038 85.0252 58.5 85.0753 58.5H131.305C131.434 58.5 131.561 58.525 131.681 58.5735L147.5 65L160.185 72.305C160.275 72.3568 160.354 72.4193 160.423 72.4964C194.614 110.351 209.418 227.767 82.3024 219.822Z" fill="white" stroke="black" stroke-width="6" stroke-linecap="round"/>
<path d="M123.812 24.1335C157.356 10.9872 194.493 24.7454 188 45.5C184.167 57.7526 174.807 65.7852 159.5 71.9992C126.147 56.0702 86.8468 60.9565 51.4679 68.4013C51.1713 68.4637 50.8384 68.3939 50.6677 68.1435C47.2234 63.09 81.5632 44.9755 123.812 24.1335Z" fill="white" stroke="black" stroke-width="6"/>
<path d="M31.8978 113.083C46.7227 142.733 22.0591 166.251 13.1641 169.216C1.30417 154.391 2.24799 116.048 5.21296 89.3631C14.1079 83.4332 30.8434 76.1245 48.6333 64.2646C69.3882 105.774 37.8278 113.083 31.8978 113.083Z" stroke="black" stroke-width="6"/>
<path d="M103.643 156.349C110.904 173.057 137 175 141.5 152.5" stroke="black" stroke-width="6" stroke-linecap="round"/>
<rect x="73" y="97" width="35" height="40" rx="17.5" fill="black" stroke="black" stroke-width="4"/>
<rect x="73" y="99" width="12" height="12" rx="6" fill="white"/>
<path d="M48.7323 4.17735C78.233 -1.72278 104.799 15.8589 114.756 27.9162C114.836 28.013 114.803 28.1539 114.693 28.2136L87.4795 42.9235L39.6492 68.7777L5.46353 87.2565C5.33844 87.3241 5.18528 87.2484 5.17027 87.107C2.69184 63.753 1.42048 24.5452 30.9424 10.1073C36.4794 7.39948 41.4021 5.64338 48.7323 4.17735Z" fill="white"/>
<path d="M48.7323 4.17735C78.233 -1.72278 104.799 15.8589 114.756 27.9162C114.836 28.013 114.803 28.1539 114.693 28.2136L87.4795 42.9235M48.7323 4.17735C41.4021 5.64338 36.4794 7.39948 30.9424 10.1073M48.7323 4.17735C55.1565 7.14233 77.3986 16.8317 87.4795 42.9235M39.6492 68.7777L5.46353 87.2565C5.33844 87.3241 5.18528 87.2484 5.17027 87.107C2.69184 63.753 1.42048 24.5452 30.9424 10.1073M39.6492 68.7777C32.9959 57.4172 17.7617 32.9082 30.9424 10.1073M39.6492 68.7777L87.4795 42.9235" stroke="black" stroke-width="6" stroke-linecap="round"/>
<rect x="127" y="94" width="34" height="40" rx="17" fill="black" stroke="black" stroke-width="4"/>
<rect x="125" y="98" width="12" height="12" rx="6" fill="white"/>
<path d="M245.6 90C245.013 90 244.533 89.8133 244.16 89.44C243.787 89.0667 243.6 88.5867 243.6 88V36C243.6 35.4133 243.787 34.9333 244.16 34.56C244.533 34.1867 245.013 34 245.6 34H267.36C274.24 34 279.653 35.6 283.6 38.8C287.6 41.9467 289.6 46.4267 289.6 52.24C289.6 56.0267 288.667 59.2267 286.8 61.84C284.987 64.4533 282.587 66.4267 279.6 67.76L290.64 87.44C290.8 87.76 290.88 88.0533 290.88 88.32C290.88 88.7467 290.693 89.1467 290.32 89.52C290 89.84 289.6 90 289.12 90H278.56C277.547 90 276.8 89.76 276.32 89.28C275.84 88.7467 275.493 88.2667 275.28 87.84L266.16 70.24H257.92V88C257.92 88.5867 257.733 89.0667 257.36 89.44C256.987 89.8133 256.507 90 255.92 90H245.6ZM257.92 58.96H267.2C269.707 58.96 271.573 58.3467 272.8 57.12C274.08 55.8933 274.72 54.2133 274.72 52.08C274.72 50 274.107 48.32 272.88 47.04C271.707 45.76 269.813 45.12 267.2 45.12H257.92V58.96ZM316.686 90.8C310.392 90.8 305.379 89.0933 301.646 85.68C297.912 82.2667 295.966 77.2 295.806 70.48C295.806 70.1067 295.806 69.6267 295.806 69.04C295.806 68.4533 295.806 68 295.806 67.68C295.966 63.4667 296.899 59.8667 298.606 56.88C300.366 53.84 302.766 51.5467 305.806 50C308.899 48.4 312.499 47.6 316.606 47.6C321.299 47.6 325.166 48.5333 328.206 50.4C331.299 52.2667 333.619 54.8 335.166 58C336.712 61.2 337.486 64.8533 337.486 68.96V70.88C337.486 71.4667 337.272 71.9467 336.846 72.32C336.472 72.6933 336.019 72.88 335.486 72.88H309.886C309.886 72.9333 309.886 73.0133 309.886 73.12C309.886 73.2267 309.886 73.3333 309.886 73.44C309.939 74.9867 310.206 76.4 310.686 77.68C311.166 78.96 311.912 79.9733 312.926 80.72C313.939 81.4667 315.166 81.84 316.606 81.84C317.672 81.84 318.552 81.68 319.246 81.36C319.992 80.9867 320.606 80.5867 321.086 80.16C321.566 79.68 321.939 79.28 322.206 78.96C322.686 78.4267 323.059 78.1067 323.326 78C323.646 77.84 324.126 77.76 324.766 77.76H334.686C335.219 77.76 335.646 77.92 335.966 78.24C336.339 78.5067 336.499 78.9067 336.446 79.44C336.392 80.3467 335.939 81.44 335.086 82.72C334.232 84 332.979 85.28 331.326 86.56C329.726 87.7867 327.699 88.8 325.246 89.6C322.792 90.4 319.939 90.8 316.686 90.8ZM309.886 64.96H323.406V64.8C323.406 63.0933 323.139 61.6 322.606 60.32C322.126 59.04 321.352 58.0533 320.286 57.36C319.272 56.6667 318.046 56.32 316.606 56.32C315.166 56.32 313.939 56.6667 312.926 57.36C311.966 58.0533 311.219 59.04 310.686 60.32C310.152 61.6 309.886 63.0933 309.886 64.8V64.96ZM346.986 90C346.399 90 345.919 89.8133 345.546 89.44C345.172 89.0667 344.986 88.5867 344.986 88V50.4C344.986 49.8133 345.172 49.3333 345.546 48.96C345.919 48.5867 346.399 48.4 346.986 48.4H356.186C356.772 48.4 357.252 48.5867 357.626 48.96C357.999 49.3333 358.186 49.8133 358.186 50.4V53.44C359.572 51.7867 361.386 50.4 363.626 49.28C365.866 48.16 368.506 47.6 371.546 47.6C374.639 47.6 377.359 48.2933 379.706 49.68C382.106 51.0667 383.972 53.12 385.306 55.84C386.692 58.5067 387.386 61.7867 387.386 65.68V88C387.386 88.5867 387.172 89.0667 386.746 89.44C386.372 89.8133 385.919 90 385.386 90H375.306C374.772 90 374.292 89.8133 373.866 89.44C373.492 89.0667 373.306 88.5867 373.306 88V66.16C373.306 63.6533 372.692 61.7333 371.466 60.4C370.292 59.0133 368.532 58.32 366.186 58.32C363.999 58.32 362.239 59.0133 360.906 60.4C359.626 61.7333 358.986 63.6533 358.986 66.16V88C358.986 88.5867 358.772 89.0667 358.346 89.44C357.972 89.8133 357.519 90 356.986 90H346.986ZM411.834 90.8C409.274 90.8 406.954 90.4 404.874 89.6C402.847 88.7467 401.087 87.52 399.594 85.92C398.154 84.2667 397.034 82.2933 396.234 80C395.434 77.6533 394.98 74.9867 394.874 72C394.82 70.9333 394.794 70 394.794 69.2C394.794 68.3467 394.82 67.4133 394.874 66.4C394.98 63.52 395.434 60.9333 396.234 58.64C397.034 56.3467 398.154 54.3733 399.594 52.72C401.034 51.0667 402.794 49.8133 404.874 48.96C406.954 48.0533 409.274 47.6 411.834 47.6C414.5 47.6 416.794 48.0533 418.714 48.96C420.634 49.8133 422.26 50.9333 423.594 52.32V35.2C423.594 34.6133 423.78 34.1333 424.154 33.76C424.527 33.3867 425.007 33.2 425.594 33.2H435.354C435.887 33.2 436.34 33.3867 436.714 33.76C437.14 34.1333 437.354 34.6133 437.354 35.2V88C437.354 88.5867 437.14 89.0667 436.714 89.44C436.34 89.8133 435.887 90 435.354 90H426.314C425.727 90 425.247 89.8133 424.874 89.44C424.5 89.0667 424.314 88.5867 424.314 88V85.44C423.034 86.9867 421.38 88.2667 419.354 89.28C417.327 90.2933 414.82 90.8 411.834 90.8ZM416.154 80.08C417.967 80.08 419.38 79.7067 420.394 78.96C421.46 78.16 422.234 77.1467 422.714 75.92C423.247 74.6933 423.54 73.36 423.594 71.92C423.647 70.8533 423.674 69.84 423.674 68.88C423.674 67.92 423.647 66.9333 423.594 65.92C423.54 64.5867 423.247 63.36 422.714 62.24C422.18 61.0667 421.38 60.1333 420.314 59.44C419.247 58.6933 417.86 58.32 416.154 58.32C414.394 58.32 412.98 58.6933 411.914 59.44C410.9 60.1867 410.18 61.2 409.754 62.48C409.327 63.76 409.06 65.1733 408.954 66.72C408.794 68.3733 408.794 70.0267 408.954 71.68C409.06 73.2267 409.327 74.64 409.754 75.92C410.18 77.2 410.9 78.2133 411.914 78.96C412.98 79.7067 414.394 80.08 416.154 80.08ZM465.983 90.8C459.689 90.8 454.676 89.0933 450.943 85.68C447.209 82.2667 445.263 77.2 445.103 70.48C445.103 70.1067 445.103 69.6267 445.103 69.04C445.103 68.4533 445.103 68 445.103 67.68C445.263 63.4667 446.196 59.8667 447.903 56.88C449.663 53.84 452.063 51.5467 455.103 50C458.196 48.4 461.796 47.6 465.903 47.6C470.596 47.6 474.463 48.5333 477.503 50.4C480.596 52.2667 482.916 54.8 484.463 58C486.009 61.2 486.783 64.8533 486.783 68.96V70.88C486.783 71.4667 486.569 71.9467 486.142 72.32C485.769 72.6933 485.316 72.88 484.783 72.88H459.183C459.183 72.9333 459.183 73.0133 459.183 73.12C459.183 73.2267 459.183 73.3333 459.183 73.44C459.236 74.9867 459.503 76.4 459.983 77.68C460.463 78.96 461.209 79.9733 462.223 80.72C463.236 81.4667 464.463 81.84 465.903 81.84C466.969 81.84 467.849 81.68 468.543 81.36C469.289 80.9867 469.903 80.5867 470.383 80.16C470.863 79.68 471.236 79.28 471.503 78.96C471.983 78.4267 472.356 78.1067 472.623 78C472.943 77.84 473.423 77.76 474.063 77.76H483.983C484.516 77.76 484.943 77.92 485.263 78.24C485.636 78.5067 485.796 78.9067 485.743 79.44C485.689 80.3467 485.236 81.44 484.383 82.72C483.529 84 482.276 85.28 480.623 86.56C479.023 87.7867 476.996 88.8 474.543 89.6C472.089 90.4 469.236 90.8 465.983 90.8ZM459.183 64.96H472.703V64.8C472.703 63.0933 472.436 61.6 471.903 60.32C471.423 59.04 470.649 58.0533 469.583 57.36C468.569 56.6667 467.343 56.32 465.903 56.32C464.463 56.32 463.236 56.6667 462.223 57.36C461.263 58.0533 460.516 59.04 459.983 60.32C459.449 61.6 459.183 63.0933 459.183 64.8V64.96ZM496.283 90C495.696 90 495.216 89.8133 494.842 89.44C494.469 89.0667 494.283 88.5867 494.283 88V50.4C494.283 49.8667 494.469 49.4133 494.842 49.04C495.216 48.6133 495.696 48.4 496.283 48.4H505.483C506.069 48.4 506.549 48.6133 506.923 49.04C507.296 49.4133 507.483 49.8667 507.483 50.4V53.6C508.923 51.9467 510.629 50.6667 512.603 49.76C514.629 48.8533 516.896 48.4 519.403 48.4H522.923C523.456 48.4 523.909 48.5867 524.283 48.96C524.709 49.3333 524.923 49.8133 524.923 50.4V58.64C524.923 59.1733 524.709 59.6533 524.283 60.08C523.909 60.4533 523.456 60.64 522.923 60.64H515.163C512.976 60.64 511.269 61.2533 510.043 62.48C508.869 63.6533 508.283 65.3333 508.283 67.52V88C508.283 88.5867 508.069 89.0667 507.643 89.44C507.269 89.8133 506.789 90 506.203 90H496.283ZM245.6 185C245.013 185 244.533 184.813 244.16 184.44C243.787 184.067 243.6 183.587 243.6 183V131C243.6 130.413 243.787 129.933 244.16 129.56C244.533 129.187 245.013 129 245.6 129H270C274.587 129 278.347 129.64 281.28 130.92C284.213 132.2 286.373 134.04 287.76 136.44C289.2 138.787 289.92 141.587 289.92 144.84C289.92 146.76 289.547 148.467 288.8 149.96C288.107 151.4 287.227 152.6 286.16 153.56C285.147 154.52 284.187 155.213 283.28 155.64C285.307 156.6 287.093 158.173 288.64 160.36C290.24 162.547 291.04 165.107 291.04 168.04C291.04 171.56 290.24 174.6 288.64 177.16C287.093 179.667 284.8 181.613 281.76 183C278.773 184.333 275.093 185 270.72 185H245.6ZM257.92 174.6H269.12C271.413 174.6 273.147 173.933 274.32 172.6C275.493 171.267 276.08 169.747 276.08 168.04C276.08 166.173 275.467 164.6 274.24 163.32C273.067 162.04 271.36 161.4 269.12 161.4H257.92V174.6ZM257.92 151.24H268.4C270.587 151.24 272.213 150.68 273.28 149.56C274.4 148.44 274.96 147 274.96 145.24C274.96 143.533 274.4 142.147 273.28 141.08C272.213 139.96 270.587 139.4 268.4 139.4H257.92V151.24ZM301.048 185C300.461 185 299.981 184.813 299.608 184.44C299.235 184.067 299.048 183.587 299.048 183V145.4C299.048 144.867 299.235 144.413 299.608 144.04C299.981 143.613 300.461 143.4 301.048 143.4H310.248C310.835 143.4 311.315 143.613 311.688 144.04C312.061 144.413 312.248 144.867 312.248 145.4V148.6C313.688 146.947 315.395 145.667 317.368 144.76C319.395 143.853 321.661 143.4 324.168 143.4H327.688C328.221 143.4 328.675 143.587 329.048 143.96C329.475 144.333 329.688 144.813 329.688 145.4V153.64C329.688 154.173 329.475 154.653 329.048 155.08C328.675 155.453 328.221 155.64 327.688 155.64H319.928C317.741 155.64 316.035 156.253 314.808 157.48C313.635 158.653 313.048 160.333 313.048 162.52V183C313.048 183.587 312.835 184.067 312.408 184.44C312.035 184.813 311.555 185 310.968 185H301.048ZM350.656 185.8C347.616 185.8 344.896 185.107 342.496 183.72C340.15 182.333 338.31 180.307 336.976 177.64C335.643 174.92 334.976 171.613 334.976 167.72V145.4C334.976 144.813 335.163 144.333 335.536 143.96C335.91 143.587 336.39 143.4 336.976 143.4H346.976C347.563 143.4 348.043 143.587 348.416 143.96C348.79 144.333 348.976 144.813 348.976 145.4V167.24C348.976 172.467 351.323 175.08 356.016 175.08C358.203 175.08 359.936 174.413 361.216 173.08C362.55 171.693 363.216 169.747 363.216 167.24V145.4C363.216 144.813 363.403 144.333 363.776 143.96C364.15 143.587 364.63 143.4 365.216 143.4H375.216C375.803 143.4 376.283 143.587 376.656 143.96C377.03 144.333 377.216 144.813 377.216 145.4V183C377.216 183.587 377.03 184.067 376.656 184.44C376.283 184.813 375.803 185 375.216 185H365.936C365.403 185 364.923 184.813 364.496 184.44C364.123 184.067 363.936 183.587 363.936 183V179.96C362.55 181.88 360.736 183.347 358.496 184.36C356.31 185.32 353.696 185.8 350.656 185.8ZM401.426 185C400.626 185 400.04 184.813 399.666 184.44C399.293 184.013 398.973 183.533 398.706 183L383.586 145.88C383.48 145.667 383.426 145.427 383.426 145.16C383.426 144.68 383.586 144.28 383.906 143.96C384.28 143.587 384.733 143.4 385.266 143.4H394.306C395 143.4 395.533 143.587 395.906 143.96C396.28 144.333 396.52 144.707 396.626 145.08L405.666 169.64L414.786 145.08C414.893 144.707 415.133 144.333 415.506 143.96C415.88 143.587 416.413 143.4 417.106 143.4H426.146C426.626 143.4 427.053 143.587 427.426 143.96C427.8 144.28 427.986 144.68 427.986 145.16C427.986 145.427 427.933 145.667 427.826 145.88L412.706 183C412.493 183.533 412.173 184.013 411.746 184.44C411.373 184.813 410.76 185 409.906 185H401.426Z" fill="black"/>
</svg>
