<svg width="34" height="39" viewBox="0 0 34 39" fill="none" xmlns="http://www.w3.org/2000/svg">
<path d="M33.1778 8.23245C30.2724 15.0117 13.0186 16.1986 8.51865 11.1985C10.0186 10.1985 14.1778 7.23247 21.6778 4.73249C27.4416 2.81125 34.6778 4.73247 33.1778 8.23245Z" fill="black"/>
<path d="M6.17781 19.7325C8.6778 24.7325 4.51865 28.6985 3.01865 29.1985C1.01864 26.6985 1.1778 20.2325 1.6778 15.7325C3.1778 14.7325 6.01866 13.1985 9.01866 11.1985C12.5187 18.1985 7.1778 19.7325 6.17781 19.7325Z" fill="black"/>
<path d="M19.0186 27.8818C20.7017 30.4519 24.7017 30.4519 25.2017 26.4519" stroke="black" stroke-linecap="round"/>
<rect x="12.0186" y="16.6985" width="8" height="8" rx="4" fill="black"/>
<rect x="21.0186" y="15.6985" width="8" height="8" rx="4" fill="black"/>
<path d="M1.51865 14.6985C-0.481345 23.6985 3.17776 37.0137 14.6778 37.7325C38.6779 39.2325 32.6778 14.2325 25.6778 11.2325" stroke="black" stroke-linecap="round"/>
<path d="M9.01865 1.19854C13.8696 0.228366 18.2498 3.02318 20.0219 5.04811C20.1045 5.14255 20.0755 5.28781 19.9651 5.34749L15.5528 7.73251M9.01865 1.19854C7.78252 1.44577 6.95237 1.74191 6.01865 2.19855M9.01865 1.19854C10.102 1.69854 13.8528 3.33251 15.5528 7.73251M7.48692 12.0924L1.94 15.0908C1.8149 15.1584 1.66134 15.0788 1.64709 14.9373C1.24798 10.9751 1.14251 4.58325 6.01865 2.19855M7.48692 12.0924C6.36493 10.1767 3.79592 6.04358 6.01865 2.19855M7.48692 12.0924L15.5528 7.73251" stroke="black" stroke-linecap="round"/>
</svg>
