<svg width="103" height="39" viewBox="0 0 103 39" fill="none" xmlns="http://www.w3.org/2000/svg">
<path d="M49.33 16C49.2273 16 49.1433 15.9673 49.078 15.902C49.0127 15.8367 48.98 15.7527 48.98 15.65V6.55C48.98 6.44733 49.0127 6.36333 49.078 6.298C49.1433 6.23267 49.2273 6.2 49.33 6.2H53.138C54.342 6.2 55.2893 6.48 55.98 7.04C56.68 7.59067 57.03 8.37467 57.03 9.392C57.03 10.0547 56.8667 10.6147 56.54 11.072C56.2227 11.5293 55.8027 11.8747 55.28 12.108L57.212 15.552C57.24 15.608 57.254 15.6593 57.254 15.706C57.254 15.7807 57.2213 15.8507 57.156 15.916C57.1 15.972 57.03 16 56.946 16H55.098C54.9207 16 54.79 15.958 54.706 15.874C54.622 15.7807 54.5613 15.6967 54.524 15.622L52.928 12.542H51.486V15.65C51.486 15.7527 51.4533 15.8367 51.388 15.902C51.3227 15.9673 51.2387 16 51.136 16H49.33ZM51.486 10.568H53.11C53.5487 10.568 53.8753 10.4607 54.09 10.246C54.314 10.0313 54.426 9.73733 54.426 9.364C54.426 9 54.3187 8.706 54.104 8.482C53.8987 8.258 53.5673 8.146 53.11 8.146H51.486V10.568ZM61.77 16.14C60.6687 16.14 59.7913 15.8413 59.138 15.244C58.4847 14.6467 58.144 13.76 58.116 12.584C58.116 12.5187 58.116 12.4347 58.116 12.332C58.116 12.2293 58.116 12.15 58.116 12.094C58.144 11.3567 58.3073 10.7267 58.606 10.204C58.914 9.672 59.334 9.27067 59.866 9C60.4073 8.72 61.0373 8.58 61.756 8.58C62.5773 8.58 63.254 8.74333 63.786 9.07C64.3273 9.39667 64.7333 9.84 65.004 10.4C65.2747 10.96 65.41 11.5993 65.41 12.318V12.654C65.41 12.7567 65.3727 12.8407 65.298 12.906C65.2327 12.9713 65.1533 13.004 65.06 13.004H60.58C60.58 13.0133 60.58 13.0273 60.58 13.046C60.58 13.0647 60.58 13.0833 60.58 13.102C60.5893 13.3727 60.636 13.62 60.72 13.844C60.804 14.068 60.9347 14.2453 61.112 14.376C61.2893 14.5067 61.504 14.572 61.756 14.572C61.9427 14.572 62.0967 14.544 62.218 14.488C62.3487 14.4227 62.456 14.3527 62.54 14.278C62.624 14.194 62.6893 14.124 62.736 14.068C62.82 13.9747 62.8853 13.9187 62.932 13.9C62.988 13.872 63.072 13.858 63.184 13.858H64.92C65.0133 13.858 65.088 13.886 65.144 13.942C65.2093 13.9887 65.2373 14.0587 65.228 14.152C65.2187 14.3107 65.1393 14.502 64.99 14.726C64.8407 14.95 64.6213 15.174 64.332 15.398C64.052 15.6127 63.6973 15.79 63.268 15.93C62.8387 16.07 62.3393 16.14 61.77 16.14ZM60.58 11.618H62.946V11.59C62.946 11.2913 62.8993 11.03 62.806 10.806C62.722 10.582 62.5867 10.4093 62.4 10.288C62.2227 10.1667 62.008 10.106 61.756 10.106C61.504 10.106 61.2893 10.1667 61.112 10.288C60.944 10.4093 60.8133 10.582 60.72 10.806C60.6267 11.03 60.58 11.2913 60.58 11.59V11.618ZM67.0725 16C66.9698 16 66.8858 15.9673 66.8205 15.902C66.7552 15.8367 66.7225 15.7527 66.7225 15.65V9.07C66.7225 8.96733 66.7552 8.88333 66.8205 8.818C66.8858 8.75267 66.9698 8.72 67.0725 8.72H68.6825C68.7852 8.72 68.8692 8.75267 68.9345 8.818C68.9998 8.88333 69.0325 8.96733 69.0325 9.07V9.602C69.2752 9.31267 69.5925 9.07 69.9845 8.874C70.3765 8.678 70.8385 8.58 71.3705 8.58C71.9118 8.58 72.3878 8.70133 72.7985 8.944C73.2185 9.18667 73.5452 9.546 73.7785 10.022C74.0212 10.4887 74.1425 11.0627 74.1425 11.744V15.65C74.1425 15.7527 74.1052 15.8367 74.0305 15.902C73.9652 15.9673 73.8858 16 73.7925 16H72.0285C71.9352 16 71.8512 15.9673 71.7765 15.902C71.7112 15.8367 71.6785 15.7527 71.6785 15.65V11.828C71.6785 11.3893 71.5712 11.0533 71.3565 10.82C71.1512 10.5773 70.8432 10.456 70.4325 10.456C70.0498 10.456 69.7418 10.5773 69.5085 10.82C69.2845 11.0533 69.1725 11.3893 69.1725 11.828V15.65C69.1725 15.7527 69.1352 15.8367 69.0605 15.902C68.9952 15.9673 68.9158 16 68.8225 16H67.0725ZM78.4209 16.14C77.9729 16.14 77.5669 16.07 77.2029 15.93C76.8482 15.7807 76.5402 15.566 76.2789 15.286C76.0269 14.9967 75.8309 14.6513 75.6909 14.25C75.5509 13.8393 75.4716 13.3727 75.4529 12.85C75.4436 12.6633 75.4389 12.5 75.4389 12.36C75.4389 12.2107 75.4436 12.0473 75.4529 11.87C75.4716 11.366 75.5509 10.9133 75.6909 10.512C75.8309 10.1107 76.0269 9.76533 76.2789 9.476C76.5309 9.18667 76.8389 8.96733 77.2029 8.818C77.5669 8.65933 77.9729 8.58 78.4209 8.58C78.8876 8.58 79.2889 8.65933 79.6249 8.818C79.9609 8.96733 80.2456 9.16333 80.4789 9.406V6.41C80.4789 6.30733 80.5116 6.22333 80.5769 6.158C80.6422 6.09267 80.7262 6.06 80.8289 6.06H82.5369C82.6302 6.06 82.7096 6.09267 82.7749 6.158C82.8496 6.22333 82.8869 6.30733 82.8869 6.41V15.65C82.8869 15.7527 82.8496 15.8367 82.7749 15.902C82.7096 15.9673 82.6302 16 82.5369 16H80.9549C80.8522 16 80.7682 15.9673 80.7029 15.902C80.6376 15.8367 80.6049 15.7527 80.6049 15.65V15.202C80.3809 15.4727 80.0916 15.6967 79.7369 15.874C79.3822 16.0513 78.9436 16.14 78.4209 16.14ZM79.1769 14.264C79.4942 14.264 79.7416 14.1987 79.9189 14.068C80.1056 13.928 80.2409 13.7507 80.3249 13.536C80.4182 13.3213 80.4696 13.088 80.4789 12.836C80.4882 12.6493 80.4929 12.472 80.4929 12.304C80.4929 12.136 80.4882 11.9633 80.4789 11.786C80.4696 11.5527 80.4182 11.338 80.3249 11.142C80.2316 10.9367 80.0916 10.7733 79.9049 10.652C79.7182 10.5213 79.4756 10.456 79.1769 10.456C78.8689 10.456 78.6216 10.5213 78.4349 10.652C78.2576 10.7827 78.1316 10.96 78.0569 11.184C77.9822 11.408 77.9356 11.6553 77.9169 11.926C77.8889 12.2153 77.8889 12.5047 77.9169 12.794C77.9356 13.0647 77.9822 13.312 78.0569 13.536C78.1316 13.76 78.2576 13.9373 78.4349 14.068C78.6216 14.1987 78.8689 14.264 79.1769 14.264ZM87.8969 16.14C86.7956 16.14 85.9183 15.8413 85.2649 15.244C84.6116 14.6467 84.2709 13.76 84.2429 12.584C84.2429 12.5187 84.2429 12.4347 84.2429 12.332C84.2429 12.2293 84.2429 12.15 84.2429 12.094C84.2709 11.3567 84.4343 10.7267 84.7329 10.204C85.0409 9.672 85.4609 9.27067 85.9929 9C86.5343 8.72 87.1643 8.58 87.8829 8.58C88.7043 8.58 89.3809 8.74333 89.9129 9.07C90.4543 9.39667 90.8603 9.84 91.1309 10.4C91.4016 10.96 91.5369 11.5993 91.5369 12.318V12.654C91.5369 12.7567 91.4996 12.8407 91.4249 12.906C91.3596 12.9713 91.2803 13.004 91.1869 13.004H86.7069C86.7069 13.0133 86.7069 13.0273 86.7069 13.046C86.7069 13.0647 86.7069 13.0833 86.7069 13.102C86.7163 13.3727 86.7629 13.62 86.8469 13.844C86.9309 14.068 87.0616 14.2453 87.2389 14.376C87.4163 14.5067 87.6309 14.572 87.8829 14.572C88.0696 14.572 88.2236 14.544 88.3449 14.488C88.4756 14.4227 88.5829 14.3527 88.6669 14.278C88.7509 14.194 88.8163 14.124 88.8629 14.068C88.9469 13.9747 89.0123 13.9187 89.0589 13.9C89.1149 13.872 89.1989 13.858 89.3109 13.858H91.0469C91.1403 13.858 91.2149 13.886 91.2709 13.942C91.3363 13.9887 91.3643 14.0587 91.3549 14.152C91.3456 14.3107 91.2663 14.502 91.1169 14.726C90.9676 14.95 90.7483 15.174 90.4589 15.398C90.1789 15.6127 89.8243 15.79 89.3949 15.93C88.9656 16.07 88.4663 16.14 87.8969 16.14ZM86.7069 11.618H89.0729V11.59C89.0729 11.2913 89.0263 11.03 88.9329 10.806C88.8489 10.582 88.7136 10.4093 88.5269 10.288C88.3496 10.1667 88.1349 10.106 87.8829 10.106C87.6309 10.106 87.4163 10.1667 87.2389 10.288C87.0709 10.4093 86.9403 10.582 86.8469 10.806C86.7536 11.03 86.7069 11.2913 86.7069 11.59V11.618ZM93.1994 16C93.0968 16 93.0128 15.9673 92.9474 15.902C92.8821 15.8367 92.8494 15.7527 92.8494 15.65V9.07C92.8494 8.97667 92.8821 8.89733 92.9474 8.832C93.0128 8.75733 93.0968 8.72 93.1994 8.72H94.8094C94.9121 8.72 94.9961 8.75733 95.0614 8.832C95.1268 8.89733 95.1594 8.97667 95.1594 9.07V9.63C95.4114 9.34067 95.7101 9.11667 96.0554 8.958C96.4101 8.79933 96.8068 8.72 97.2454 8.72H97.8614C97.9548 8.72 98.0341 8.75267 98.0994 8.818C98.1741 8.88333 98.2114 8.96733 98.2114 9.07V10.512C98.2114 10.6053 98.1741 10.6893 98.0994 10.764C98.0341 10.8293 97.9548 10.862 97.8614 10.862H96.5034C96.1208 10.862 95.8221 10.9693 95.6074 11.184C95.4021 11.3893 95.2994 11.6833 95.2994 12.066V15.65C95.2994 15.7527 95.2621 15.8367 95.1874 15.902C95.1221 15.9673 95.0381 16 94.9354 16H93.1994ZM49.33 33C49.2273 33 49.1433 32.9673 49.078 32.902C49.0127 32.8367 48.98 32.7527 48.98 32.65V23.55C48.98 23.4473 49.0127 23.3633 49.078 23.298C49.1433 23.2327 49.2273 23.2 49.33 23.2H53.6C54.4027 23.2 55.0607 23.312 55.574 23.536C56.0873 23.76 56.4653 24.082 56.708 24.502C56.96 24.9127 57.086 25.4027 57.086 25.972C57.086 26.308 57.0207 26.6067 56.89 26.868C56.7687 27.12 56.6147 27.33 56.428 27.498C56.2507 27.666 56.0827 27.7873 55.924 27.862C56.2787 28.03 56.5913 28.3053 56.862 28.688C57.142 29.0707 57.282 29.5187 57.282 30.032C57.282 30.648 57.142 31.18 56.862 31.628C56.5913 32.0667 56.19 32.4073 55.658 32.65C55.1353 32.8833 54.4913 33 53.726 33H49.33ZM51.486 31.18H53.446C53.8473 31.18 54.1507 31.0633 54.356 30.83C54.5613 30.5967 54.664 30.3307 54.664 30.032C54.664 29.7053 54.5567 29.43 54.342 29.206C54.1367 28.982 53.838 28.87 53.446 28.87H51.486V31.18ZM51.486 27.092H53.32C53.7027 27.092 53.9873 26.994 54.174 26.798C54.37 26.602 54.468 26.35 54.468 26.042C54.468 25.7433 54.37 25.5007 54.174 25.314C53.9873 25.118 53.7027 25.02 53.32 25.02H51.486V27.092ZM59.0334 33C58.9308 33 58.8468 32.9673 58.7814 32.902C58.7161 32.8367 58.6834 32.7527 58.6834 32.65V26.07C58.6834 25.9767 58.7161 25.8973 58.7814 25.832C58.8468 25.7573 58.9308 25.72 59.0334 25.72H60.6434C60.7461 25.72 60.8301 25.7573 60.8954 25.832C60.9608 25.8973 60.9934 25.9767 60.9934 26.07V26.63C61.2454 26.3407 61.5441 26.1167 61.8894 25.958C62.2441 25.7993 62.6408 25.72 63.0794 25.72H63.6954C63.7888 25.72 63.8681 25.7527 63.9334 25.818C64.0081 25.8833 64.0454 25.9673 64.0454 26.07V27.512C64.0454 27.6053 64.0081 27.6893 63.9334 27.764C63.8681 27.8293 63.7888 27.862 63.6954 27.862H62.3374C61.9548 27.862 61.6561 27.9693 61.4414 28.184C61.2361 28.3893 61.1334 28.6833 61.1334 29.066V32.65C61.1334 32.7527 61.0961 32.8367 61.0214 32.902C60.9561 32.9673 60.8721 33 60.7694 33H59.0334ZM67.7148 33.14C67.1828 33.14 66.7068 33.0187 66.2868 32.776C65.8762 32.5333 65.5542 32.1787 65.3208 31.712C65.0875 31.236 64.9708 30.6573 64.9708 29.976V26.07C64.9708 25.9673 65.0035 25.8833 65.0688 25.818C65.1342 25.7527 65.2182 25.72 65.3208 25.72H67.0708C67.1735 25.72 67.2575 25.7527 67.3228 25.818C67.3882 25.8833 67.4208 25.9673 67.4208 26.07V29.892C67.4208 30.8067 67.8315 31.264 68.6528 31.264C69.0355 31.264 69.3388 31.1473 69.5628 30.914C69.7962 30.6713 69.9128 30.3307 69.9128 29.892V26.07C69.9128 25.9673 69.9455 25.8833 70.0108 25.818C70.0762 25.7527 70.1602 25.72 70.2628 25.72H72.0128C72.1155 25.72 72.1995 25.7527 72.2648 25.818C72.3302 25.8833 72.3628 25.9673 72.3628 26.07V32.65C72.3628 32.7527 72.3302 32.8367 72.2648 32.902C72.1995 32.9673 72.1155 33 72.0128 33H70.3888C70.2955 33 70.2115 32.9673 70.1368 32.902C70.0715 32.8367 70.0388 32.7527 70.0388 32.65V32.118C69.7962 32.454 69.4788 32.7107 69.0868 32.888C68.7042 33.056 68.2468 33.14 67.7148 33.14ZM76.5996 33C76.4596 33 76.3569 32.9673 76.2916 32.902C76.2263 32.8273 76.1703 32.7433 76.1236 32.65L73.4776 26.154C73.4589 26.1167 73.4496 26.0747 73.4496 26.028C73.4496 25.944 73.4776 25.874 73.5336 25.818C73.5989 25.7527 73.6783 25.72 73.7716 25.72H75.3536C75.4749 25.72 75.5683 25.7527 75.6336 25.818C75.6989 25.8833 75.7409 25.9487 75.7596 26.014L77.3416 30.312L78.9376 26.014C78.9563 25.9487 78.9983 25.8833 79.0636 25.818C79.1289 25.7527 79.2223 25.72 79.3436 25.72H80.9256C81.0096 25.72 81.0843 25.7527 81.1496 25.818C81.2149 25.874 81.2476 25.944 81.2476 26.028C81.2476 26.0747 81.2383 26.1167 81.2196 26.154L78.5736 32.65C78.5363 32.7433 78.4803 32.8273 78.4056 32.902C78.3403 32.9673 78.2329 33 78.0836 33H76.5996Z" fill="#2F5EE0"/>
<path d="M33.1778 8.23245C30.2724 15.0117 13.0187 16.1986 8.51868 11.1985C10.0187 10.1985 14.1778 7.23247 21.6778 4.73249C27.4416 2.81125 34.6778 4.73247 33.1778 8.23245Z" fill="#2F5EE0"/>
<path d="M6.17777 19.7325C8.67777 24.7325 4.51862 28.6985 3.01862 29.1985C1.01861 26.6985 1.17777 20.2325 1.67777 15.7325C3.17777 14.7325 6.01863 13.1985 9.01863 11.1985C12.5186 18.1985 7.17777 19.7325 6.17777 19.7325Z" fill="#2F5EE0"/>
<path d="M19.0187 27.8818C20.7017 30.4519 24.7017 30.4519 25.2017 26.4519" stroke="#2F5EE0" stroke-linecap="round"/>
<rect x="12.0187" y="16.6985" width="8" height="8" rx="4" fill="#2F5EE0"/>
<rect x="21.0187" y="15.6985" width="8" height="8" rx="4" fill="#2F5EE0"/>
<path d="M1.51865 14.6985C-0.481345 23.6985 3.17776 37.0137 14.6778 37.7325C38.6779 39.2325 32.6778 14.2325 25.6778 11.2325" stroke="#2F5EE0" stroke-linecap="round"/>
<path d="M9.01866 1.19854C13.8696 0.228366 18.2498 3.02318 20.0219 5.04811C20.1045 5.14255 20.0755 5.28781 19.9651 5.34749L15.5528 7.73251M9.01866 1.19854C7.78253 1.44577 6.95238 1.74191 6.01866 2.19855M9.01866 1.19854C10.102 1.69854 13.8528 3.33251 15.5528 7.73251M7.48693 12.0924L1.94002 15.0908C1.81492 15.1584 1.66136 15.0788 1.6471 14.9373C1.248 10.9751 1.14253 4.58325 6.01866 2.19855M7.48693 12.0924C6.36495 10.1767 3.79593 6.04358 6.01866 2.19855M7.48693 12.0924L15.5528 7.73251" stroke="#2F5EE0" stroke-linecap="round"/>
</svg>
